<svg width="137" height="28" viewBox="0 0 137 28" fill="none" xmlns="http://www.w3.org/2000/svg">
<path d="M13.9998 17.5V14L10.6895 11L15.1033 8L17.3102 11H19.5171M10.6895 17.5C10.6895 19.433 8.96036 21 6.8274 21C4.69444 21 2.96533 19.433 2.96533 17.5C2.96533 15.567 4.69444 14 6.8274 14C8.96036 14 10.6895 15.567 10.6895 17.5ZM25.0343 17.5C25.0343 19.433 23.3052 21 21.1722 21C19.0393 21 17.3102 19.433 17.3102 17.5C17.3102 15.567 19.0393 14 21.1722 14C23.3052 14 25.0343 15.567 25.0343 17.5ZM17.3102 6C17.6028 6 17.8835 5.89464 18.0904 5.70711C18.2974 5.51957 18.4136 5.26522 18.4136 5C18.4136 4.73478 18.2974 4.48043 18.0904 4.29289C17.8835 4.10536 17.6028 4 17.3102 4C17.0175 4 16.7368 4.10536 16.5299 4.29289C16.323 4.48043 16.2067 4.73478 16.2067 5C16.2067 5.26522 16.323 5.51957 16.5299 5.70711C16.7368 5.89464 17.0175 6 17.3102 6Z" stroke="#F37B44" stroke-width="2" stroke-linecap="round" stroke-linejoin="round"/>
<path d="M34.7 14C34.7 12.6267 35.0067 11.4 35.62 10.32C36.2467 9.22667 37.0933 8.38 38.16 7.78C39.24 7.16667 40.4467 6.86 41.78 6.86C43.34 6.86 44.7067 7.26 45.88 8.06C47.0533 8.86 47.8733 9.96667 48.34 11.38H45.12C44.8 10.7133 44.3467 10.2133 43.76 9.88C43.1867 9.54667 42.52 9.38 41.76 9.38C40.9467 9.38 40.22 9.57333 39.58 9.96C38.9533 10.3333 38.46 10.8667 38.1 11.56C37.7533 12.2533 37.58 13.0667 37.58 14C37.58 14.92 37.7533 15.7333 38.1 16.44C38.46 17.1333 38.9533 17.6733 39.58 18.06C40.22 18.4333 40.9467 18.62 41.76 18.62C42.52 18.62 43.1867 18.4533 43.76 18.12C44.3467 17.7733 44.8 17.2667 45.12 16.6H48.34C47.8733 18.0267 47.0533 19.14 45.88 19.94C44.72 20.7267 43.3533 21.12 41.78 21.12C40.4467 21.12 39.24 20.82 38.16 20.22C37.0933 19.6067 36.2467 18.76 35.62 17.68C35.0067 16.6 34.7 15.3733 34.7 14ZM61.3316 9.92L54.4716 26.24H51.4916L53.8916 20.72L49.4516 9.92H52.5916L55.4516 17.66L58.3516 9.92H61.3316ZM62.1209 15.46C62.1209 14.3133 62.3543 13.3133 62.8209 12.46C63.2876 11.5933 63.9343 10.9267 64.7609 10.46C65.5876 9.98 66.5343 9.74 67.6009 9.74C68.9743 9.74 70.1076 10.0867 71.0009 10.78C71.9076 11.46 72.5143 12.42 72.8209 13.66H69.8009C69.6409 13.18 69.3676 12.8067 68.9809 12.54C68.6076 12.26 68.1409 12.12 67.5809 12.12C66.7809 12.12 66.1476 12.4133 65.6809 13C65.2143 13.5733 64.9809 14.3933 64.9809 15.46C64.9809 16.5133 65.2143 17.3333 65.6809 17.92C66.1476 18.4933 66.7809 18.78 67.5809 18.78C68.7143 18.78 69.4543 18.2733 69.8009 17.26H72.8209C72.5143 18.46 71.9076 19.4133 71.0009 20.12C70.0943 20.8267 68.9609 21.18 67.6009 21.18C66.5343 21.18 65.5876 20.9467 64.7609 20.48C63.9343 20 63.2876 19.3333 62.8209 18.48C62.3543 17.6133 62.1209 16.6067 62.1209 15.46ZM77.6722 6.2V21H74.8722V6.2H77.6722ZM90.7386 15.22C90.7386 15.62 90.7119 15.98 90.6586 16.3H82.5586C82.6253 17.1 82.9053 17.7267 83.3986 18.18C83.8919 18.6333 84.4986 18.86 85.2186 18.86C86.2586 18.86 86.9986 18.4133 87.4386 17.52H90.4586C90.1386 18.5867 89.5253 19.4667 88.6186 20.16C87.7119 20.84 86.5986 21.18 85.2786 21.18C84.2119 21.18 83.2519 20.9467 82.3986 20.48C81.5586 20 80.8986 19.3267 80.4186 18.46C79.9519 17.5933 79.7186 16.5933 79.7186 15.46C79.7186 14.3133 79.9519 13.3067 80.4186 12.44C80.8853 11.5733 81.5386 10.9067 82.3786 10.44C83.2186 9.97333 84.1853 9.74 85.2786 9.74C86.3319 9.74 87.2719 9.96667 88.0986 10.42C88.9386 10.8733 89.5853 11.52 90.0386 12.36C90.5053 13.1867 90.7386 14.14 90.7386 15.22ZM87.8386 14.42C87.8253 13.7 87.5653 13.1267 87.0586 12.7C86.5519 12.26 85.9319 12.04 85.1986 12.04C84.5053 12.04 83.9186 12.2533 83.4386 12.68C82.9719 13.0933 82.6853 13.6733 82.5786 14.42H87.8386ZM108.002 7.04V21H105.202V11.92L101.462 21H99.3423L95.5823 11.92V21H92.7823V7.04H95.9623L100.402 17.42L104.842 7.04H108.002ZM110.051 15.42C110.051 14.3 110.271 13.3067 110.711 12.44C111.164 11.5733 111.771 10.9067 112.531 10.44C113.304 9.97333 114.164 9.74 115.111 9.74C115.937 9.74 116.657 9.90667 117.271 10.24C117.897 10.5733 118.397 10.9933 118.771 11.5V9.92H121.591V21H118.771V19.38C118.411 19.9 117.911 20.3333 117.271 20.68C116.644 21.0133 115.917 21.18 115.091 21.18C114.157 21.18 113.304 20.94 112.531 20.46C111.771 19.98 111.164 19.3067 110.711 18.44C110.271 17.56 110.051 16.5533 110.051 15.42ZM118.771 15.46C118.771 14.78 118.637 14.2 118.371 13.72C118.104 13.2267 117.744 12.8533 117.291 12.6C116.837 12.3333 116.351 12.2 115.831 12.2C115.311 12.2 114.831 12.3267 114.391 12.58C113.951 12.8333 113.591 13.2067 113.311 13.7C113.044 14.18 112.911 14.7533 112.911 15.42C112.911 16.0867 113.044 16.6733 113.311 17.18C113.591 17.6733 113.951 18.0533 114.391 18.32C114.844 18.5867 115.324 18.72 115.831 18.72C116.351 18.72 116.837 18.5933 117.291 18.34C117.744 18.0733 118.104 17.7 118.371 17.22C118.637 16.7267 118.771 16.14 118.771 15.46ZM127.125 11.52C127.485 11.0133 127.979 10.5933 128.605 10.26C129.245 9.91333 129.972 9.74 130.785 9.74C131.732 9.74 132.585 9.97333 133.345 10.44C134.119 10.9067 134.725 11.5733 135.165 12.44C135.619 13.2933 135.845 14.2867 135.845 15.42C135.845 16.5533 135.619 17.56 135.165 18.44C134.725 19.3067 134.119 19.98 133.345 20.46C132.585 20.94 131.732 21.18 130.785 21.18C129.972 21.18 129.252 21.0133 128.625 20.68C128.012 20.3467 127.512 19.9267 127.125 19.42V26.28H124.325V9.92H127.125V11.52ZM132.985 15.42C132.985 14.7533 132.845 14.18 132.565 13.7C132.299 13.2067 131.939 12.8333 131.485 12.58C131.045 12.3267 130.565 12.2 130.045 12.2C129.539 12.2 129.059 12.3333 128.605 12.6C128.165 12.8533 127.805 13.2267 127.525 13.72C127.259 14.2133 127.125 14.7933 127.125 15.46C127.125 16.1267 127.259 16.7067 127.525 17.2C127.805 17.6933 128.165 18.0733 128.605 18.34C129.059 18.5933 129.539 18.72 130.045 18.72C130.565 18.72 131.045 18.5867 131.485 18.32C131.939 18.0533 132.299 17.6733 132.565 17.18C132.845 16.6867 132.985 16.1 132.985 15.42Z" fill="#F37B44"/>
</svg>
